<svg width="36" height="36" viewBox="0 0 36 36" fill="none" xmlns="http://www.w3.org/2000/svg">
<path d="M6.435 0.133743C6.66417 0.243902 6.85755 0.416528 6.9929 0.631741C7.12824 0.846955 7.20003 1.09601 7.2 1.35022C7.2 2.84382 7.7616 3.70399 8.4654 4.75132L8.5176 4.8269C9.1152 5.71586 9.9 6.88015 9.9 8.5483C9.9 10.2507 9.0414 11.7515 7.7328 12.6422C8.0766 12.9301 8.3808 13.2846 8.6436 13.7093C9.5004 15.095 9.9 17.213 9.9 20.2542C9.9 23.335 9.486 27.0348 8.811 29.9896C8.4762 31.458 8.0604 32.813 7.5654 33.8298C7.3317 34.3357 7.02214 34.8029 6.6474 35.2154C6.2766 35.5951 5.706 36 4.95 36C4.194 36 3.6234 35.5951 3.2544 35.2154C2.87858 34.8038 2.5689 34.3363 2.3364 33.8298C1.8396 32.8112 1.4238 31.458 1.089 29.9878C0.386905 26.7896 0.021913 23.5266 1.73431e-06 20.2524C1.73431e-06 17.2112 0.399602 15.095 1.2564 13.7093C1.50084 13.3071 1.80836 12.9468 2.1672 12.6422C1.49899 12.1887 0.952088 11.5784 0.574295 10.8647C0.196502 10.1511 -0.00067465 9.35575 1.73431e-06 8.5483C1.73431e-06 7.88608 1.55568e-06 6.74698 0.689401 5.27678C1.3644 3.83716 2.6478 2.1834 5.0058 0.295701C5.20454 0.136774 5.44416 0.037244 5.69703 0.00858839C5.9499 -0.0200672 6.20573 0.0233189 6.435 0.133743ZM14.4 23.245C13.4464 23.0851 12.5188 22.7969 11.6424 22.3884C11.6802 21.6578 11.7 20.9416 11.7 20.2542C11.7 19.5236 11.6784 18.8254 11.6316 18.1595C12.429 18.8164 13.3704 19.304 14.4 19.5686V15.2965C14.4 14.5806 14.6845 13.894 15.1908 13.3878C15.6972 12.8816 16.3839 12.5972 17.1 12.5972H23.4C23.4002 11.2242 23.0075 9.87974 22.2684 8.7225C21.5293 7.56526 20.4745 6.6435 19.2285 6.06597C17.9825 5.48844 16.5972 5.27923 15.2362 5.46303C13.8751 5.64683 12.5951 6.21596 11.547 7.10329C11.2356 5.63848 10.512 4.56596 10.0494 3.88035L9.9774 3.77238C11.5946 2.63264 13.494 1.95897 15.4681 1.82491C17.4422 1.69085 19.4152 2.10155 21.1717 3.01217C22.9283 3.92279 24.4008 5.29834 25.4286 6.98866C26.4564 8.67898 27 10.6191 27 12.5972H33.3C34.0161 12.5972 34.7028 12.8816 35.2092 13.3878C35.7155 13.894 36 14.5806 36 15.2965V31.4922C36 32.2081 35.7155 32.8947 35.2092 33.4009C34.7028 33.9071 34.0161 34.1915 33.3 34.1915H17.1C16.3839 34.1915 15.6972 33.9071 15.1908 33.4009C14.6845 32.8947 14.4 32.2081 14.4 31.4922V23.245ZM18 23.245V30.5924H32.4V16.1963H26.3862C25.7428 18.0116 24.626 19.6221 23.1513 20.8613C21.6766 22.1006 19.8976 22.9235 17.9982 23.245H18ZM22.437 16.1963H18V19.5686C18.9263 19.3287 19.7957 18.907 20.5574 18.3281C21.3192 17.7491 21.9581 17.0245 22.437 16.1963Z" fill="#373437"/>
</svg>
