<svg width="36" height="36" viewBox="0 0 36 36" fill="none" xmlns="http://www.w3.org/2000/svg">
<path d="M35.0342 16.9115C33.4433 7.10602 31.0492 1.87246 27.4977 0.442894C26.7512 0.144351 25.9768 -0.00479811 25.1989 0.000117655C24.1706 0.000117655 23.275 0.341659 22.3277 0.703652C21.1861 1.14029 19.8893 1.63624 17.9985 1.63624C16.1076 1.63624 14.81 1.14132 13.6662 0.704674C12.7182 0.341659 11.8233 0.000117655 10.798 0.000117655C9.99356 -0.00368541 9.1926 0.144989 8.41815 0.441872C4.88545 1.8653 2.49281 7.09681 0.87872 16.9054C-0.85688 27.4604 -0.00258038 34.1246 3.27436 35.6707C3.72354 35.8866 4.19617 35.9979 4.67244 36C6.91732 36 8.71742 33.4507 9.94749 31.3636C11.3373 29.0015 12.9642 27.803 17.9985 27.803C22.495 27.803 24.3558 28.6344 25.9632 31.3636C26.9735 33.0795 27.9283 34.28 28.8808 35.0357C30.1477 36.0399 31.4137 36.2628 32.643 35.6871C34.5797 34.7862 35.6897 32.4046 35.9432 28.6068C36.136 25.6945 35.839 21.869 35.0342 16.9115ZM14.3982 16.3614H11.9981V19.6336C11.9981 20.0676 11.8717 20.4837 11.6466 20.7905C11.4216 21.0974 11.1163 21.2698 10.798 21.2698C10.4798 21.2698 10.1745 21.0974 9.94946 20.7905C9.72441 20.4837 9.59797 20.0676 9.59797 19.6336V16.3614H7.19783C6.87956 16.3614 6.57431 16.189 6.34926 15.8822C6.1242 15.5753 5.99776 15.1592 5.99776 14.7253C5.99776 14.2913 6.1242 13.8752 6.34926 13.5683C6.57431 13.2615 6.87956 13.0891 7.19783 13.0891H9.59797V9.81687C9.59797 9.38295 9.72441 8.96679 9.94946 8.65996C10.1745 8.35313 10.4798 8.18075 10.798 8.18075C11.1163 8.18075 11.4216 8.35313 11.6466 8.65996C11.8717 8.96679 11.9981 9.38295 11.9981 9.81687V13.0891H14.3982C14.7165 13.0891 15.0218 13.2615 15.2468 13.5683C15.4719 13.8752 15.5983 14.2913 15.5983 14.7253C15.5983 15.1592 15.4719 15.5753 15.2468 15.8822C15.0218 16.189 14.7165 16.3614 14.3982 16.3614ZM20.6986 16.7704C20.4019 16.7704 20.1119 16.6505 19.8652 16.4257C19.6185 16.201 19.4262 15.8816 19.3127 15.5079C19.1992 15.1342 19.1695 14.723 19.2273 14.3263C19.2852 13.9295 19.4281 13.5651 19.6379 13.2791C19.8477 12.9931 20.115 12.7983 20.406 12.7194C20.6969 12.6405 20.9986 12.681 21.2727 12.8358C21.5468 12.9906 21.7811 13.2527 21.9459 13.589C22.1107 13.9253 22.1987 14.3208 22.1987 14.7253C22.1987 15.2677 22.0407 15.7879 21.7593 16.1714C21.478 16.5549 21.0965 16.7704 20.6986 16.7704ZM23.9988 21.2698C23.702 21.2698 23.4118 21.1497 23.165 20.9247C22.9182 20.6998 22.726 20.3801 22.6125 20.0061C22.4991 19.6321 22.4696 19.2206 22.5278 18.8237C22.586 18.4269 22.7292 18.0625 22.9394 17.7766C23.1496 17.4908 23.4172 17.2964 23.7085 17.2181C23.9997 17.1398 24.3014 17.181 24.5755 17.3366C24.8495 17.4922 25.0835 17.7551 25.2479 18.0921C25.4123 18.4291 25.4996 18.825 25.4989 19.2297C25.4979 19.7712 25.3394 20.2901 25.0582 20.6726C24.777 21.055 24.396 21.2698 23.9988 21.2698ZM23.9988 12.2711C23.7021 12.2711 23.4121 12.1511 23.1654 11.9264C22.9187 11.7017 22.7264 11.3823 22.6129 11.0086C22.4994 10.6348 22.4697 10.2236 22.5275 9.82691C22.5854 9.43019 22.7283 9.06578 22.9381 8.77976C23.1479 8.49374 23.4152 8.29896 23.7061 8.22005C23.9971 8.14113 24.2988 8.18163 24.5729 8.33643C24.847 8.49122 25.0812 8.75335 25.2461 9.08968C25.4109 9.426 25.4989 9.82141 25.4989 10.2259C25.4989 10.7683 25.3408 11.2885 25.0595 11.672C24.7782 12.0556 24.3966 12.2711 23.9988 12.2711ZM27.299 16.7704C27.0023 16.7704 26.7123 16.6505 26.4656 16.4257C26.2189 16.201 26.0266 15.8816 25.9131 15.5079C25.7996 15.1342 25.7698 14.723 25.8277 14.3263C25.8856 13.9295 26.0285 13.5651 26.2383 13.2791C26.4481 12.9931 26.7153 12.7983 27.0063 12.7194C27.2973 12.6405 27.5989 12.681 27.873 12.8358C28.1472 12.9906 28.3814 13.2527 28.5463 13.589C28.7111 13.9253 28.7991 14.3208 28.7991 14.7253C28.7991 15.2677 28.641 15.7879 28.3597 16.1714C28.0784 16.5549 27.6968 16.7704 27.299 16.7704Z" fill="#373437"/>
</svg>
