<svg width="36" height="36" viewBox="0 0 36 36" fill="none" xmlns="http://www.w3.org/2000/svg">
<path d="M29.2603 14L28.9315 11.9C28.6849 11.8 28.4592 11.6747 28.2542 11.524C28.0493 11.3733 27.8641 11.1987 27.6986 11L25.9726 11.7L24.8219 9.3L26.2192 7.8C26.1644 7.63333 26.137 7.5 26.137 7.4V6.6C26.137 6.5 26.1644 6.36667 26.2192 6.2L24.8219 4.7L25.9726 2.3L27.6986 3C27.863 2.8 28.0482 2.62467 28.2542 2.474C28.4603 2.32333 28.686 2.19867 28.9315 2.1L29.2603 0H31.5616L31.8904 2.1C32.137 2.2 32.3633 2.32533 32.5693 2.476C32.7753 2.62667 32.96 2.80133 33.1233 3L34.8493 2.3L36 4.7L34.6027 6.2C34.6575 6.36667 34.6849 6.5 34.6849 6.6V7.4C34.6849 7.5 34.6575 7.63333 34.6027 7.8L36 9.3L34.8493 11.7L33.1233 11C32.9589 11.2 32.7742 11.3753 32.5693 11.526C32.3644 11.6767 32.1381 11.8013 31.8904 11.9L31.5616 14H29.2603ZM30.411 9.5C30.9863 9.5 31.4729 9.258 31.8707 8.774C32.2685 8.29 32.4668 7.69867 32.4658 7C32.4658 6.3 32.2668 5.708 31.869 5.224C31.4712 4.74 30.9852 4.49867 30.411 4.5C29.8356 4.5 29.349 4.742 28.9512 5.226C28.5534 5.71 28.3551 6.30133 28.3562 7C28.3562 7.7 28.5551 8.292 28.9529 8.776C29.3507 9.26 29.8367 9.50133 30.411 9.5ZM25.4794 24L25.2329 22.5C25.0685 22.4333 24.9112 22.358 24.7611 22.274C24.611 22.19 24.4668 22.0653 24.3288 21.9L23.1781 22.4L22.3562 20.6L23.2603 19.6V18.4L22.3562 17.4L23.1781 15.6L24.3288 16.1C24.4384 15.9667 24.5753 15.85 24.7397 15.75C24.9041 15.65 25.0685 15.5667 25.2329 15.5L25.4794 14H27.1233L27.3699 15.5C27.5342 15.5667 27.6986 15.65 27.863 15.75C28.0274 15.85 28.1644 15.9667 28.274 16.1L29.4247 15.6L30.2466 17.4L29.3425 18.4V19.6L30.2466 20.6L29.4247 22.4L28.274 21.9C28.137 22.0667 27.9929 22.192 27.8416 22.276C27.6904 22.36 27.5331 22.4347 27.3699 22.5L27.1233 24H25.4794ZM26.3014 20.5C26.6301 20.5 26.9178 20.35 27.1644 20.05C27.411 19.75 27.5342 19.4 27.5342 19C27.5342 18.6 27.411 18.25 27.1644 17.95C26.9178 17.65 26.6301 17.5 26.3014 17.5C25.9726 17.5 25.6849 17.65 25.4384 17.95C25.1918 18.25 25.0685 18.6 25.0685 19C25.0685 19.4 25.1918 19.75 25.4384 20.05C25.6849 20.35 25.9726 20.5 26.3014 20.5ZM13.1507 20C11.3425 20 9.79452 19.2167 8.50685 17.65C7.21918 16.0833 6.57534 14.2 6.57534 12H5.34247V10H6.57534C6.57534 8.5 6.87671 7.15 7.47945 5.95C8.08219 4.75 8.87671 3.8 9.86301 3.1V5C9.86301 5.3 9.93863 5.542 10.0899 5.726C10.2411 5.91 10.4395 6.00133 10.6849 6C10.9315 6 11.1304 5.908 11.2816 5.724C11.4329 5.54 11.5079 5.29867 11.5068 5V2.3C11.7534 2.2 12.0137 2.12467 12.2877 2.074C12.5616 2.02333 12.8493 1.99867 13.1507 2C13.4521 2 13.7397 2.02533 14.0137 2.076C14.2877 2.12667 14.5479 2.20133 14.7945 2.3V5C14.7945 5.3 14.8701 5.542 15.0214 5.726C15.1726 5.91 15.371 6.00133 15.6164 6C15.863 6 16.0619 5.908 16.2131 5.724C16.3644 5.54 16.4395 5.29867 16.4384 5V3.1C17.4247 3.8 18.2192 4.75 18.8219 5.95C19.4247 7.15 19.726 8.5 19.726 10H20.9589V12H19.726C19.726 14.2 19.0822 16.0833 17.7945 17.65C16.5068 19.2167 14.9589 20 13.1507 20ZM13.1507 16C14.0548 16 14.829 15.608 15.4734 14.824C16.1178 14.04 16.4395 13.0987 16.4384 12H9.86301C9.86301 13.1 10.1852 14.042 10.8296 14.826C11.474 15.61 12.2477 16.0013 13.1507 16ZM0 36V30.4C0 29.3 0.232877 28.2667 0.69863 27.3C1.16438 26.3333 1.80822 25.6 2.63014 25.1C4.0274 24.2333 5.60274 23.5 7.35616 22.9C9.10959 22.3 11.0411 22 13.1507 22C15.2603 22 17.1918 22.3 18.9452 22.9C20.6986 23.5 22.274 24.2333 23.6712 25.1C24.4931 25.6 25.137 26.3333 25.6027 27.3C26.0685 28.2667 26.3014 29.3 26.3014 30.4V36H0Z" fill="#373437"/>
</svg>
