<svg width="36" height="19" viewBox="0 0 36 19" fill="none" xmlns="http://www.w3.org/2000/svg">
<path d="M3.6 36C2.61 36 1.7622 35.559 1.0566 34.677C0.351003 33.795 -0.00119694 32.736 3.05603e-06 31.5V4.5C3.05603e-06 3.2625 0.352803 2.20275 1.0584 1.32075C1.764 0.438753 2.6112 -0.00149618 3.6 3.82004e-06H32.4C33.39 3.82004e-06 34.2378 0.441003 34.9434 1.323C35.649 2.205 36.0012 3.264 36 4.5V31.5C36 32.7375 35.6472 33.7972 34.9416 34.6792C34.236 35.5612 33.3888 36.0015 32.4 36H3.6ZM3.6 31.5H32.4V4.5H3.6V31.5ZM15.3 29.25C16.56 29.25 17.625 28.7062 18.495 27.6187C19.365 26.5312 19.8 25.2 19.8 23.625V11.25H23.4C23.91 11.25 24.3378 11.034 24.6834 10.602C25.029 10.17 25.2012 9.636 25.2 9C25.2 8.3625 25.0272 7.82775 24.6816 7.39575C24.336 6.96375 23.9088 6.7485 23.4 6.75H19.8C19.29 6.75 18.8622 6.966 18.5166 7.398C18.171 7.83 17.9988 8.364 18 9V19.125C17.61 18.7875 17.19 18.5153 16.74 18.3083C16.29 18.1012 15.81 17.9985 15.3 18C14.04 18 12.975 18.5438 12.105 19.6313C11.235 20.7188 10.8 22.05 10.8 23.625C10.8 25.2 11.235 26.5312 12.105 27.6187C12.975 28.7062 14.04 29.25 15.3 29.25Z" fill="#373437"/>
</svg>
