<svg width="36" height="36" viewBox="0 0 36 36" fill="none" xmlns="http://www.w3.org/2000/svg">
<path d="M10.8 7.57895V3.78948C10.8 2.74737 11.1528 1.85495 11.8584 1.11221C12.564 0.369477 13.4112 -0.00125994 14.4 3.21687e-06H21.6C22.59 3.21687e-06 23.4378 0.371372 24.1434 1.11411C24.849 1.85684 25.2012 2.74863 25.2 3.78948V7.57895H32.4C33.39 7.57895 34.2378 7.95032 34.9434 8.69305C35.649 9.43579 36.0012 10.3276 36 11.3684V20.8421H23.4V17.0526H12.6V20.8421H3.05603e-06V11.3684C3.05603e-06 10.3263 0.352803 9.4339 1.0584 8.69116C1.764 7.94842 2.6112 7.57769 3.6 7.57895H10.8ZM14.4 7.57895H21.6V3.78948H14.4V7.57895ZM16.2 24.6316V20.8421H19.8V24.6316H16.2ZM3.05603e-06 24.6316H12.6V28.421H23.4V24.6316H36V32.2105C36 33.2526 35.6472 34.1451 34.9416 34.8878C34.236 35.6305 33.3888 36.0013 32.4 36H3.6C2.61 36 1.7622 35.6286 1.0566 34.8859C0.351003 34.1432 -0.00119694 33.2514 3.05603e-06 32.2105V24.6316Z" fill="#373437"/>
</svg>
